<?xml version="1.0" encoding="utf-8"?>
<!-- Generator: Adobe Illustrator 16.0.0, SVG Export Plug-In . SVG Version: 6.00 Build 0)  -->
<!DOCTYPE svg PUBLIC "-//W3C//DTD SVG 1.1//EN" "http://www.w3.org/Graphics/SVG/1.1/DTD/svg11.dtd">
<svg version="1.1" id="Capa_1" xmlns="http://www.w3.org/2000/svg" xmlns:xlink="http://www.w3.org/1999/xlink" x="0px" y="0px"
	 width="24.531px" height="24.5px" viewBox="0 0 24.531 24.5" enable-background="new 0 0 24.531 24.5" xml:space="preserve" fill="currentColor">
<path d="M12.264,23.062c5.973,0,10.812-4.841,10.812-10.812c0-5.971-4.841-10.812-10.812-10.812C6.294,1.438,1.453,6.28,1.453,12.25
	C1.453,18.222,6.293,23.062,12.264,23.062z M14.904,11.446l-5.75-5.805C8.939,5.44,8.85,5.136,8.925,4.852
	c0.074-0.283,0.299-0.507,0.584-0.578c0.285-0.07,0.58,0.021,0.781,0.237l7.105,7.175c0.312,0.314,0.312,0.818,0,1.132l-7.107,7.176
	c-0.199,0.215-0.496,0.303-0.779,0.232c-0.287-0.072-0.512-0.293-0.584-0.578c-0.074-0.285,0.015-0.587,0.228-0.788l5.75-5.805
	c0,0,0.545-0.514,0.545-0.846C15.447,11.876,14.904,11.446,14.904,11.446z"/>
</svg>
